/* XPM */
static char *icon_xpm[] = {
/* columns rows colors chars-per-pixel */
"48 48 158 2",
"   c #000000",
".  c #040608",
"X  c #05090B",
"o  c #090C0E",
"O  c #0A0D11",
"+  c #0D1114",
"@  c #0E1318",
"#  c #101316",
"$  c #111519",
"%  c #14191D",
"&  c #151B21",
"*  c #191D22",
"=  c #1B2025",
"-  c #1D2329",
";  c #1C2733",
":  c #1D2834",
">  c #1D2C3A",
",  c #21252A",
"<  c #23282D",
"1  c #232B32",
"2  c #232E39",
"3  c #282E34",
"4  c #263039",
"5  c #2A3035",
"6  c #2B333B",
"7  c #31383F",
"8  c #2C3641",
"9  c #2E3843",
"0  c #2E3B48",
"q  c #323A43",
"w  c #333D48",
"e  c #29415A",
"r  c #35404B",
"t  c #39424B",
"y  c #364352",
"u  c #3A4653",
"i  c #3C4854",
"p  c #3D4B5B",
"a  c #2D4863",
"s  c #314E6C",
"d  c #3C5874",
"f  c #40454B",
"g  c #44494E",
"h  c #444C56",
"j  c #424E5C",
"k  c #44505D",
"l  c #4A525B",
"z  c #404F60",
"x  c #445364",
"c  c #465668",
"v  c #47586A",
"b  c #4A5661",
"n  c #4B5A65",
"m  c #4B5B6B",
"M  c #415C78",
"N  c #4C5E72",
"B  c #515D6A",
"V  c #585E65",
"C  c #4E6175",
"Z  c #53606E",
"A  c #5B636B",
"S  c #536474",
"D  c #52657A",
"F  c #55687E",
"G  c #586776",
"H  c #5D6A77",
"J  c #5D6D7C",
"K  c #646D77",
"L  c #646F7A",
"P  c #67707B",
"I  c #6B747E",
"U  c #566B81",
"Y  c #596D84",
"T  c #5B7087",
"R  c #5D738B",
"E  c #617283",
"W  c #677A8E",
"Q  c #6D7780",
"!  c #6A7B8C",
"~  c #617790",
"^  c #647B95",
"/  c #667E99",
"(  c #6C7E91",
")  c #737D89",
"_  c #69829C",
"`  c #75818B",
"'  c #7B858D",
"]  c #718597",
"[  c #73879A",
"{  c #768A9E",
"}  c #788491",
"|  c #7D8895",
" . c #7A8A9A",
".. c #6C85A1",
"X. c #6E88A4",
"o. c #708AA6",
"O. c #738DAB",
"+. c #7A8EA3",
"@. c #7590AE",
"#. c #7D91A5",
"$. c #7B95B1",
"%. c #848F9A",
"&. c #88919D",
"*. c #8392A3",
"=. c #8096AC",
"-. c #8299AE",
";. c #8C99A6",
":. c #8D9BA9",
">. c #849CB2",
",. c #889FB5",
"<. c #889FB9",
"1. c #909DA8",
"2. c #8AA1B6",
"3. c #8CA4BC",
"4. c #94A1AE",
"5. c #90A6BE",
"6. c #90A8BF",
"7. c #9AA6B3",
"8. c #9BA8B6",
"9. c #9CABBB",
"0. c #A4B0BA",
"q. c #ABB3BC",
"w. c #93ACC4",
"e. c #95AFC8",
"r. c #9CAEC2",
"t. c #96B1CA",
"y. c #9DB0C5",
"u. c #99B4CD",
"i. c #9BB6D0",
"p. c #9DB8D2",
"a. c #A6B5C5",
"s. c #A6B7CB",
"d. c #A9B6C6",
"f. c #ABBACB",
"g. c #B1BFCE",
"h. c #B5C2CF",
"j. c #B4C3D3",
"k. c #B6CADD",
"l. c #BDC6D0",
"z. c #BDCAD7",
"x. c #B9CBDC",
"c. c #C1CAD3",
"v. c #C0CFDD",
"b. c #C5D2DE",
"n. c #CBD3DC",
"m. c #C8D7E6",
"M. c #CEDAE6",
"N. c #D4DAE0",
"B. c #D2DEE9",
"V. c #D7E1EB",
"C. c #DBE4EC",
"Z. c #DEE7F0",
"A. c #DFE8F0",
"S. c #E0E5E9",
"D. c #E8ECEF",
"F. c #E3EAF2",
"G. c #FEFEFE",
"H. c None",
/* pixels */
"H.H.H.H.H.H.H.H.H.H.H.H.H.H.H.H.H.H.H.H.H.H.H.H.H.H.H.H.H.H.H.H.H.H.H.H.H.H.H.H.H.H.H.H.H.H.H.H.",
"H.H.H.H.H.H.H.H.H.H.H.H.H.H.H.H.H.H.H.H.H.H.H.H.H.H.H.H.H.H.H.H.H.H.H.H.H.H.H.H.H.H.H.H.H.H.H.H.",
"H.H.H.H.H.H.H.H.H.H.H.H.H.H.H.H.H.H.H.H.        H.H.H.H.H.H.H.H.H.H.H.H.H.H.H.H.H.H.H.H.H.H.H.H.",
"H.H.H.H.H.H.H.H.H.H.H.H.H.H.H.H.H.  O & % % % & &     H.H.H.H.H.H.H.H.H.H.H.H.H.H.H.H.H.H.H.H.H.",
"H.H.H.H.H.H.H.H.H.H.H.H.H.H.H.  + @ + $ 6 t 6 * + & &   H.H.H.H.H.H.H.H.H.H.H.H.H.H.H.H.H.H.H.H.",
"H.H.H.H.H.H.H.H.H.H.H.H.H.H.  + + w >.u.2.3.w.p.-.t + * . H.H.H.H.H.H.H.H.H.H.H.H.H.H.H.H.H.H.H.",
"H.H.H.H.H.H.H.H.H.H.H.H.H.  + - r.y.r < g f 1 6 { p.( o O   H.H.H.H.H.H.H.H.H.H.H.H.H.H.H.H.H.H.",
"H.H.H.H.H.H.H.H.H.H.H.  X O l V.' % ! h.j.j.j.1.1 S p.+.O +   H.H.H.H.H.H.H.H.H.H.H.H.H.H.H.H.H.",
"H.H.H.H.H.H.H.H.H.H.H.X + P M.9 w O.$.j.j.j.j.j.f.6 J 3.m + +   H.H.H.H.H.H.H.H.H.H.H.H.H.H.H.H.",
"H.H.H.H.H.H.H.H.H.H.  O A Z.4 p @.@.@.j.j.j.j.j.j.d.- 3.2.- O o   H.H.H.H.H.H.H.H.H.H.H.H.H.H.H.",
"H.H.H.H.H.H.H.H.H.  o 7 C.l i @.@.@.@.s.j.j.j.j.j.j.) t 6.J % @ . H.H.H.H.H.H.H.H.H.H.H.H.H.H.H.",
"H.H.H.H.H.H.H.H.H.. + b. .- O.@.@.@.@.a.j.j.j.j.j.j.g.& t.2.$ p @   H.H.H.H.H.H.H.H.H.H.H.H.H.H.",
"H.H.H.H.H.H.H.H.  o ;.x.* ^ @.@.@.@.@.w.j.j.j.j.j.j.j.n E 2.t 9 i @   H.H.H.H.H.H.H.H.H.H.H.H.H.",
"H.H.H.H.H.H.H.  o q F.w c @.@.@.@.@.@.3.j.j.j.j.j.j.j.*.r w.J % O.2 @   H.H.H.H.H.H.H.H.H.H.H.H.",
"H.H.H.H.H.H.H.  O h.:.< @.@.@.@.@.@.@.<.j.j.j.j.j.j.j.9.5 p.] @ X.X.& O   H.H.H.H.H.H.H.H.H.H.H.",
"H.H.H.H.H.H.H.X 6 V.1 ^ @.@.@.@.@.@.O.>.j.j.j.j.j.j.j.f.- u.#.- D @.^ $   H.H.H.H.H.H.H.H.H.H.H.",
"H.H.H.H.H.H.  o a.f.* @.@.@.@.@.@.@.@.$.j.j.j.j.j.j.j.j.- i.>.1 c @.@.U @   H.H.H.H.H.H.H.H.H.H.",
"H.H.H.H.H.H.  - C.k v @.@.@.@.@.@.@.@.@.j.h.j.j.j.j.j.j.3 t.,.3 i @.@.@.p @   H.H.H.H.H.H.H.H.H.",
"H.H.H.H.H.  O ` B.* X.@.@.@.@.@.@.@.@.@.g.j.) g h 7.j.j.7 3.,.7 0 @.@.@.O.2 +   H.H.H.H.H.H.H.H.",
"H.H.H.H.H.  O b.;.4 @.@.@.@.@.@.@.@.@.@.y.h z ! e 2 7.j.t =.>.w 8 @.@.@.@.O.& o   H.H.H.H.H.H.H.",
"H.H.H.H.H.X * C.6 U @.@.@.@.@.@.@.@.O.@.B m C.M s 0 l j.3 w.>.q w @.@.@.@.@./ @ . H.H.H.H.H.H.H.",
"H.H.H.H.H.o l V.& O.@.@.@.@.@.@.@.@.O.R : N.#.s s s 2 s.< s.-.6 u @.@.@.@.@.@.Y +   H.H.H.H.H.H.",
"H.H.H.H.  O 1.z.- @.@.@.@.@.@.@.@.@.@.0  .G.d s s s 2 7.1 p.#.1 z @.@.@.@.@.@.@.p +   H.H.H.H.H.",
"H.H.H.H.  o m.1.9 @.@.@.@.@.@.@.@.@...; D.N.s s s s 2 &.w p.! - C @.@.@.@.@.@.@.X.@   H.H.H.H.H.",
"H.H.H.H.  + F.H z @.@.@.@.@.@.@.@.@.Y y G.n.s s s s 2 ) l p.J $ _ @.@.@.@.@.@.@.@.8 X H.H.H.H.H.",
"H.H.H.H.  % F.u D @.@.@.@.@.@.@.@.@.m G G.c.s s s s 2 B E i.S @ O.@.@.@.@.@.@.@.@.R $   H.H.H.H.",
"H.H.H.H.. - V.3 ^ @.@.@.@.@.@.@.@.@.u  .G.l.s s s a j 1 #.w.j - @.@.@.@.@.@.@.@.@./ %   H.H.H.H.",
"H.H.H.H.X 3 F.* O.@.@.@.@.@.@.@.@.@.j &.G.n.s s s > | - p.#.9 t @.@.@.@.@.@.@.@.@.Y %   H.H.H.H.",
"H.H.H.H.X w F.% @.@.@.@.@.@.@.@.@.@.S m G.S.s s a 6 L m p.E % R @.@.@.@.@.@.@.@.@.N @   H.H.H.H.",
"H.H.H.H.X 6 D.% O.@.@.@.@.@.@.@.@.@.=.: N.C.s s : 1.5 w.t.n $ O.@.@.@.@.@.@.@.@.O.i O H.H.H.H.H.",
"H.H.H.H.. 1 F.- ..O.@.@.@.@.@.@.@.$.h.l p #.a ; I 7.6 p.{ q 9 @.O.O.O.o.o.X.X._ _ %   H.H.H.H.H.",
"H.H.H.H.  * B.6 ~ @.@.@.@.@.@.@.@.r.j.f.K 6 t :.h.l ! p.E $ Y X......._ / / ^ ^ N @   H.H.H.H.H.",
"H.H.H.H.  + m.j D @.@.@.@.@.@.@.$.j.j.j.j.j.j.j.f.% u.3.i - / / ^ ^ W R R R R D +   H.H.H.H.H.H.",
"H.H.H.H.  o f.' c @.@.@.@.@.@.@.y.j.j.j.j.j.j.j.A m p.E % v R R T T R Y U U y @   H.H.H.H.H.H.H.",
"H.H.H.H.  + ! q.t @.@.@.@.@.@.>.j.j.j.j.j.j.j.7.5 u.-.h % U U F D D D C c * +   H.H.H.H.H.H.H.H.",
"H.H.H.H.H.o t b.& O.@.@.@.O.$.f.j.j.j.j.z.j.f.5 2.u.H + p C C N N N i - # X   H.H.H.H.H.H.H.H.H.",
"H.H.H.H.H.  # z.q R @.@.@.O.e.j.j.j.j.j.j.j.V J i.+.< ; v v c c w & + X   H.H.H.H.H.H.H.H.H.H.H.",
"H.H.H.H.H.  O T 0.1 @.@.@.w.j.j.j.j.j.j.j.%.q u.>.j + p p p 9 + + .   H.H.H.H.H.H.H.H.H.H.H.H.H.",
"H.H.H.H.H.H.X * k.l S O.<.j.j.j.j.j.j.j.| < w.3.l o 9 y 6 + + X   H.H.H.H.H.H.H.H.H.H.H.H.H.H.H.",
"H.H.H.H.H.H.  + B s.& ( j.j.j.j.j.j.f.K 3 e.w.G + 2 1 + + .   H.H.H.H.H.H.H.H.H.H.H.H.H.H.H.H.H.",
"H.H.H.H.H.H.H.. O =.3., I d.j.j.a.' - l u.>.Z + 1 + @     H.H.H.H.H.H.H.H.H.H.H.H.H.H.H.H.H.H.H.",
"H.H.H.H.H.H.H.  O + ] w.Z = - * - p 2.t.-.i o o @ X   H.H.H.H.H.H.H.H.H.H.H.H.H.H.H.H.H.H.H.H.H.",
"H.H.H.H.H.H.H.H.  o O B w.p.u.t.p.p.p.! & o + .   H.H.H.H.H.H.H.H.H.H.H.H.H.H.H.H.H.H.H.H.H.H.H.",
"H.H.H.H.H.H.H.H.H.  o + # w n E G q % o o     H.H.H.H.H.H.H.H.H.H.H.H.H.H.H.H.H.H.H.H.H.H.H.H.H.",
"H.H.H.H.H.H.H.H.H.H.H.  o o O @ + O O     H.H.H.H.H.H.H.H.H.H.H.H.H.H.H.H.H.H.H.H.H.H.H.H.H.H.H.",
"H.H.H.H.H.H.H.H.H.H.H.H.H.        H.H.H.H.H.H.H.H.H.H.H.H.H.H.H.H.H.H.H.H.H.H.H.H.H.H.H.H.H.H.H.",
"H.H.H.H.H.H.H.H.H.H.H.H.H.H.H.H.H.H.H.H.H.H.H.H.H.H.H.H.H.H.H.H.H.H.H.H.H.H.H.H.H.H.H.H.H.H.H.H.",
"H.H.H.H.H.H.H.H.H.H.H.H.H.H.H.H.H.H.H.H.H.H.H.H.H.H.H.H.H.H.H.H.H.H.H.H.H.H.H.H.H.H.H.H.H.H.H.H."
};
